# xmcd
#
# Track frame offsets:
# 150
# 19510
# 42555
# 65361
# 90154
# 114630
# 134147
# 152228
#
# Disc length: 2343 seconds
#
# Revision: 0
# Processed by: cddbd v1.4PL0 Copyright (c) Steve Scherf et al.
# Submitted via: Audion 2.6.0 (http://www.panic.com/audion/)
#
DISCID=66092508
DTITLE=Ozzie - Bark at the Moon
DYEAR=1900
DGENRE=
TTITLE0=Bark at the Moon
TTITLE1=You're no different
TTITLE2=Now u see it(now u don't)
TTITLE3=Rock N Roll rebel
TTITLE4=Centre of Eternity
TTITLE5=So tired
TTITLE6=Slow down
TTITLE7=Waiting for darkness
EXTD=
EXTT0=
EXTT1=
EXTT2=
EXTT3=
EXTT4=
EXTT5=
EXTT6=
EXTT7=
PLAYORDER=
